Coordinates
version=1
nRows=35
nColumns=34
inDegrees=no

Units are S.I. units (second, meters, Newtons, ...)
If the header above contains a line with 'inDegrees', this indicates whether rotational values are in degrees (yes) or radians (no).

endheader
time	pelvis_tilt	pelvis_list	pelvis_rotation	pelvis_tx	pelvis_ty	pelvis_tz	hip_flexion_r	hip_adduction_r	hip_rotation_r	knee_angle_r	ankle_angle_r	subtalar_angle_r	mtp_angle_r	hip_flexion_l	hip_adduction_l	hip_rotation_l	knee_angle_l	ankle_angle_l	subtalar_angle_l	mtp_angle_l	lumbar_extension	lumbar_bending	lumbar_rotation	arm_flex_r	arm_add_r	arm_rot_r	elbow_flex_r	pro_sup_r	arm_flex_l	arm_add_l	arm_rot_l	elbow_flex_l	pro_sup_l
2.23	-0.268734	-0.0937628	0.0621252	-0.150206	1.4398	-0.56208	0.236764	0.0912185	-0.262381	0.0751933	-0.398886	0.080391	-0.115704	0.276567	-0.0776021	-0.316694	0.068143	-0.295469	0.338098	-0.115704	0.216059	0.0781588	-0.108106	5.24425	-1.3829	4.56815	2.22095	1.55548	5.47806	-1.09982	5.16775	2.53263	1.41715
2.24	-0.278645	-0.0949562	0.0611158	-0.150097	1.44845	-0.561533	0.245267	0.0938095	-0.268942	0.0636506	-0.391362	0.0882291	-0.115704	0.286548	-0.0765995	-0.330175	0.06032	-0.283662	0.340365	-0.115704	0.22446	0.0762333	-0.108199	5.4177	-1.32908	4.79511	2.2082	1.58374	5.45374	-1.04035	5.21539	2.52653	1.44917
2.25	-0.286327	-0.0963763	0.0608334	-0.150305	1.45614	-0.560968	0.253573	0.0958807	-0.276075	0.0572143	-0.386305	0.0924517	-0.115704	0.296079	-0.0764698	-0.337695	0.0564783	-0.27556	0.339302	-0.115704	0.229718	0.0746961	-0.108212	5.51517	-1.26809	4.94501	2.19443	1.61131	5.42715	-0.985646	5.25893	2.51618	1.47952
2.26	-0.290919	-0.09788	0.0612293	-0.150776	1.46294	-0.56037	0.260439	0.0974099	-0.282985	0.0553986	-0.383596	0.0940893	-0.115704	0.303877	-0.0771643	-0.339524	0.0561942	-0.270524	0.336003	-0.115704	0.230921	0.0735069	-0.107604	5.55211	-1.20461	5.03339	2.18108	1.63581	5.40385	-0.936718	5.30307	2.50213	1.50795
2.27	-0.292089	-0.0993235	0.0621608	-0.151435	1.46885	-0.55973	0.265059	0.0983909	-0.288823	0.0573143	-0.382847	0.0941745	-0.115704	0.309133	-0.0785633	-0.336391	0.0587716	-0.267724	0.331497	-0.115704	0.227837	0.0725968	-0.106181	5.54672	-1.14246	5.07887	2.16909	1.65571	5.38629	-0.893702	5.34972	2.48507	1.535
2.28	-0.290029	-0.100577	0.0634182	-0.152205	1.47388	-0.559047	0.267137	0.0988244	-0.292716	0.0618746	-0.383492	0.0935208	-0.115704	0.311563	-0.0804844	-0.329267	0.0633554	-0.266324	0.326572	-0.115704	0.220874	0.0718722	-0.103992	5.5164	-1.08435	5.09951	2.15896	1.67041	5.37468	-0.856087	5.39879	2.46576	1.56178
2.29	-0.285363	-0.10153	0.0647545	-0.153012	1.47799	-0.558322	0.26686	0.0987118	-0.293844	0.0679715	-0.384896	0.0926389	-0.115704	0.311373	-0.0827063	-0.319234	0.0690467	-0.265636	0.32177	-0.115704	0.210935	0.0712193	-0.101216	5.47556	-1.03185	5.1104	2.15079	1.68008	5.36787	-0.822966	5.44911	2.44501	1.58918
2.3	-0.278992	-0.102104	0.0659171	-0.153796	1.48116	-0.557563	0.264785	0.0980546	-0.291552	0.0746138	-0.386468	0.0917723	-0.115704	0.309141	-0.0850041	-0.307411	0.0750125	-0.265184	0.317484	-0.115704	0.199224	0.0705134	-0.0980593	5.43458	-0.98551	5.12243	2.14444	1.68553	5.36417	-0.793294	5.49909	2.42362	1.61745
2.31	-0.271926	-0.102256	0.0666805	-0.154516	1.48332	-0.556779	0.261696	0.0968586	-0.285503	0.0810206	-0.38774	0.0909988	-0.115704	0.305667	-0.0871859	-0.294885	0.080574	-0.264699	0.314017	-0.115704	0.187032	0.0696362	-0.0946824	5.39976	-0.945063	5.14216	2.13962	1.68805	5.36183	-0.766087	5.54727	2.40234	1.64595
2.32	-0.265121	-0.101986	0.0668761	-0.155146	1.48444	-0.555979	0.258441	0.0951411	-0.275791	0.0866704	-0.388413	0.0903359	-0.115704	0.30182	-0.0891199	-0.28262	0.085261	-0.26406	0.311588	-0.115704	0.175542	0.0684985	-0.0911771	5.3739	-0.90971	5.17229	2.13597	1.68918	5.35947	-0.74054	5.59265	2.38183	1.67328
2.33	-0.259351	-0.101344	0.066415	-0.15568	1.48447	-0.555173	0.255794	0.0929393	-0.262969	0.0913035	-0.388372	0.0898043	-0.115704	0.298388	-0.0907462	-0.271357	0.0888252	-0.263231	0.310293	-0.115704	0.165687	0.0670627	-0.0875687	5.35724	-0.87837	5.21262	2.13315	1.6905	5.35625	-0.716074	5.63471	2.36257	1.69798
2.34	-0.255127	-0.100423	0.0653004	-0.156127	1.48341	-0.554372	0.254348	0.0903182	-0.247982	0.0948788	-0.387663	0.089443	-0.115704	0.295985	-0.0920763	-0.261555	0.0912216	-0.262202	0.310092	-0.115704	0.158054	0.065357	-0.0838455	5.34839	-0.849901	5.26106	2.13089	1.69342	5.35184	-0.69232	5.6734	2.3448	1.71889
2.35	-0.252669	-0.0993525	0.0636276	-0.156508	1.48122	-0.553586	0.254447	0.0873736	-0.232023	0.0975004	-0.386459	0.0892956	-0.115704	0.294984	-0.0931788	-0.253369	0.0925652	-0.260947	0.310806	-0.115704	0.152864	0.0634718	-0.0800009	5.34524	-0.823267	5.31463	2.12894	1.69922	5.3464	-0.669078	5.70902	2.3286	1.73542
2.36	-0.251924	-0.0982751	0.0615675	-0.156852	1.47793	-0.552827	0.256177	0.084225	-0.216337	0.0993384	-0.384986	0.0893915	-0.115704	0.295517	-0.0941564	-0.246674	0.0930747	-0.259405	0.312118	-0.115704	0.149998	0.0615367	-0.0760688	5.3456	-0.797645	5.37023	2.12714	1.70899	5.34036	-0.646262	5.74203	2.31385	1.74758
2.37	-0.252635	-0.0973219	0.0593346	-0.157194	1.47353	-0.552102	0.259397	0.0809977	-0.202043	0.100565	-0.383453	0.0897381	-0.115704	0.297503	-0.0951172	-0.241143	0.0930181	-0.257481	0.313613	-0.115704	0.149076	0.0596855	-0.0721393	5.34761	-0.772483	5.42517	2.12529	1.72363	5.33425	-0.623853	5.77291	2.30032	1.75593
2.38	-0.254414	-0.0965893	0.0571502	-0.157569	1.46807	-0.551416	0.263813	0.0778043	-0.189985	0.101315	-0.381971	0.0903284	-0.115704	0.300713	-0.0961511	-0.23637	0.0926617	-0.255065	0.314873	-0.115704	0.149559	0.058024	-0.0683545	5.34998	-0.7475	5.47746	2.12323	1.74376	5.32862	-0.601851	5.80205	2.28773	1.76141
2.39	-0.25683	-0.0961258	0.0552085	-0.15801	1.46155	-0.550766	0.269047	0.0747296	-0.180676	0.101665	-0.380509	0.0911588	-0.115704	0.30483	-0.0973118	-0.232002	0.0922266	-0.252066	0.315589	-0.115704	0.150847	0.0566093	-0.0648887	5.35198	-0.722647	5.52588	2.12078	1.76958	5.32385	-0.580253	5.8297	2.27577	1.76513
2.4	-0.259477	-0.0959313	0.0536534	-0.15854	1.45402	-0.550147	0.274708	0.0718249	-0.174303	0.101633	-0.37889	0.0922409	-0.115704	0.309505	-0.0986104	-0.227837	0.0918591	-0.248439	0.315648	-0.115704	0.152375	0.0554467	-0.0619187	5.3534	-0.69803	5.56987	2.11773	1.80079	5.32021	-0.559037	5.85597	2.26417	1.7681
2.41	-0.262024	-0.0959662	0.0525643	-0.159173	1.44548	-0.549549	0.28045	0.0691105	-0.170799	0.101184	-0.376861	0.0935945	-0.115704	0.314413	-0.100021	-0.223874	0.0916224	-0.244196	0.315145	-0.115704	0.153673	0.0544991	-0.0595906	5.35436	-0.673835	5.60937	2.11392	1.83646	5.3178	-0.538158	5.88086	2.2527	1.77116
2.42	-0.264245	-0.0961663	0.0519551	-0.159913	1.43597	-0.548963	0.286006	0.0665848	-0.169949	0.10024	-0.374207	0.0952247	-0.115704	0.319292	-0.101492	-0.220312	0.0915046	-0.239433	0.31434	-0.115704	0.15441	0.0537043	-0.0579932	5.35518	-0.650245	5.64466	2.1092	1.87504	5.31663	-0.517564	5.90429	2.24115	1.77479
2.43	-0.266021	-0.0964588	0.051783	-0.160756	1.4255	-0.54838	0.2912	0.0642335	-0.171499	0.0986885	-0.370884	0.0970941	-0.115704	0.323958	-0.102969	-0.217492	0.091434	-0.234365	0.313553	-0.115704	0.154403	0.0529893	-0.0571418	5.35627	-0.627388	5.67614	2.10348	1.9143	5.31663	-0.497208	5.92619	2.2294	1.77911
2.44	-0.267328	-0.0967724	0.0519646	-0.161691	1.41408	-0.547791	0.295944	0.0620322	-0.175265	0.0964109	-0.367137	0.0991017	-0.115704	0.32831	-0.104397	-0.215799	0.0912977	-0.229385	0.313045	-0.115704	0.1536	0.0522787	-0.0569767	5.35798	-0.60531	5.70428	2.09675	1.95153	5.31774	-0.477073	5.94652	2.21735	1.78397
2.45	-0.268209	-0.0970423	0.0523943	-0.162707	1.40173	-0.547189	0.300224	0.0599434	-0.181192	0.0933182	-0.363548	0.101076	-0.115704	0.332309	-0.105739	-0.215564	0.0909656	-0.225132	0.312897	-0.115704	0.152048	0.0514952	-0.0573741	5.36062	-0.583964	5.72952	2.089	1.98394	5.31989	-0.457182	5.96529	2.20494	1.78906
2.46	-0.268732	-0.0972097	0.0529627	-0.163786	1.38846	-0.546569	0.304082	0.0579092	-0.189382	0.0894052	-0.361013	0.102781	-0.115704	0.335957	-0.106974	-0.216982	0.0903186	-0.22254	0.312951	-0.115704	0.149841	0.0505558	-0.0581679	5.36439	-0.563233	5.75219	2.08027	2.00946	5.32304	-0.437591	5.98254	2.19211	1.79411
2.47	-0.268959	-0.0972214	0.0535707	-0.164915	1.37427	-0.545923	0.307595	0.0558479	-0.200055	0.084808	-0.360641	0.103926	-0.115704	0.339265	-0.108104	-0.220052	0.0892847	-0.222818	0.312798	-0.115704	0.147073	0.0493704	-0.0591764	5.36939	-0.542958	5.77253	2.07054	2.02718	5.32718	-0.418384	5.99837	2.17886	1.79898
2.48	-0.26891	-0.0970327	0.05414	-0.166081	1.35917	-0.545246	0.310859	0.0536577	-0.213465	0.0798509	-0.363596	0.104174	-0.115704	0.342234	-0.109158	-0.224545	0.0878865	-0.227334	0.311827	-0.115704	0.143791	0.0478475	-0.0602267	5.37568	-0.522975	5.79074	2.05983	2.03735	5.33231	-0.399649	6.0128	2.16519	1.80383
2.49	-0.26855	-0.0966149	0.0546181	-0.167275	1.34315	-0.544531	0.313972	0.0512274	-0.229775	0.0750779	-0.370885	0.103173	-0.115704	0.344855	-0.110196	-0.229996	0.086312	-0.237364	0.309327	-0.115704	0.139967	0.0459062	-0.0611722	5.38323	-0.503134	5.80698	2.04818	2.04115	5.33849	-0.381472	6.02585	2.15108	1.80911
2.5	-0.267788	-0.095963	0.054982	-0.168497	1.32621	-0.543771	0.317044	0.0484491	-0.248935	0.0712603	-0.383104	0.100599	-0.115704	0.347136	-0.111306	-0.235718	0.0849995	-0.253726	0.304632	-0.115704	0.135489	0.0434936	-0.0619008	5.392	-0.483322	5.82138	2.03569	2.04036	5.34578	-0.363923	6.03747	2.13657	1.81551
2.51	-0.266496	-0.0951027	0.0552404	-0.169757	1.30831	-0.542959	0.320198	0.0452339	-0.270548	0.0693859	-0.400149	0.096188	-0.115704	0.349146	-0.112596	-0.240816	0.0847141	-0.276346	0.297253	-0.115704	0.130179	0.0406004	-0.0623431	5.40191	-0.463463	5.83408	2.02252	2.03694	5.35431	-0.347054	6.04755	2.12168	1.82372
2.52	-0.264543	-0.0940931	0.0554342	-0.171078	1.28941	-0.542094	0.323602	0.0415298	-0.293768	0.0706333	-0.420902	0.0897611	-0.115704	0.351066	-0.114164	-0.244211	0.0865842	-0.303823	0.286957	-0.115704	0.12382	0.0372736	-0.0624783	5.41292	-0.443523	5.84516	2.0089	2.03278	5.36424	-0.3309	6.05598	2.10647	1.83423
2.53	-0.261841	-0.0930291	0.0556306	-0.1725	1.26947	-0.54118	0.327507	0.037342	-0.317241	0.0763289	-0.442965	0.0812381	-0.115704	0.353242	-0.116076	-0.244675	0.0920755	-0.333123	0.273755	-0.115704	0.116218	0.0336272	-0.0623351	5.42497	-0.423508	5.85466	1.99513	2.02948	5.37578	-0.315478	6.06267	2.09097	1.84728
2.54	-0.258397	-0.0920406	0.0559104	-0.174082	1.24844	-0.540229	0.332294	0.0327572	-0.339135	0.0878769	-0.462507	0.070648	-0.115704	0.356226	-0.118331	-0.240908	0.102904	-0.359508	0.257855	-0.115704	0.107258	0.0298479	-0.0619767	5.43805	-0.403457	5.8625	1.98153	2.02813	5.38918	-0.300802	6.06758	2.07522	1.86268
2.55	-0.254365	-0.091288	0.056352	-0.175901	1.22628	-0.539257	0.338508	0.027962	-0.3573	0.106651	-0.474361	0.0581307	-0.115704	0.360809	-0.120855	-0.23172	0.120898	-0.376813	0.239618	-0.115704	0.0969757	0.0261909	-0.0614772	5.45221	-0.383438	5.86855	1.96845	2.02929	5.40474	-0.286905	6.0708	2.0592	1.87988
2.56	-0.250073	-0.090951	0.0570116	-0.17805	1.20296	-0.538285	0.346881	0.0232502	-0.369563	0.133855	-0.472474	0.0439045	-0.115704	0.368032	-0.123512	-0.216296	0.147824	-0.378137	0.21956	-0.115704	0.0855994	0.0229615	-0.0608973	5.46752	-0.363549	5.87265	1.95617	2.03298	5.42284	-0.273855	6.07258	2.04279	1.89801
2.57	-0.246029	-0.0912162	0.057904	-0.180637	1.17853	-0.537332	0.35832	0.0190089	-0.374131	0.170365	-0.450771	0.0281884	-0.115704	0.379167	-0.126136	-0.194484	0.185181	-0.356959	0.198358	-0.115704	0.0735713	0.0204888	-0.0602641	5.48413	-0.343934	5.87471	1.94488	2.03882	5.44388	-0.261767	6.07329	2.02572	1.9161
